<svg preserveAspectRatio="xMidYMid meet" data-bbox="28 31.103 143.9 137.897" viewBox="28 31.103 143.9 137.897" height="200" width="200" xmlns="http://www.w3.org/2000/svg" data-type="color" role="img" aria-labelledby="svgcid--15veba6ifd9m"><defs><style>#comp-khdkg8gl svg [data-color="1"] {fill: #000000;}
#comp-khdkg8gl svg [data-color="2"] {fill: #0A1FDB;}</style></defs><title id="svgcid--15veba6ifd9m"></title>
    <g>
        <path d="M127.5 162.4h-.4c-21.6-2.7-41.1-8.8-56.6-17.7-14.6-8.4-25-19.1-30.1-30.9-.7-1.7-.1-3.7 1.6-4.6l29.2-17c.1-.1.2-.1.4-.1 19.6 5.1 37.1 12.2 52.3 20.9 13.8 8 25.2 17.2 33.9 27.3.7.8 1 1.9.8 3s-.8 2-1.8 2.6l-27.4 15.9c-.6.4-1.2.6-1.9.6zm-56-69.3l-29 16.9c-1.2.7-1.7 2.1-1.1 3.4 5 11.5 15.2 22.1 29.7 30.4 15.3 8.9 34.8 14.9 56.2 17.6.6.1 1.2-.1 1.7-.3l27.4-15.9c.7-.4 1.2-1.1 1.3-1.9.1-.8-.1-1.6-.6-2.2-8.6-10.1-19.9-19.2-33.6-27.1-15.1-8.8-32.6-15.8-52-20.9z" fill="#010203" data-color="1"></path>
        <path d="M127.3 159.7h-.5c-1.2-.2-2.4-.3-3.6-.5l.1-1c1.2.2 2.4.3 3.6.5.6.1 1.2-.1 1.7-.3l2.1-1.2.5.9-2.1 1.2c-.5.2-1.1.4-1.8.4zm-12.2-1.9c-2.7-.5-5.4-1.1-8-1.8l.2-1c2.6.6 5.3 1.2 8 1.8l-.2 1zm23.3-3.9l-.5-.9 7.1-4.1.5.9-7.1 4.1zm-39.2-.1c-2.7-.8-5.3-1.7-7.8-2.6l.3-.9c2.5.9 5.1 1.8 7.7 2.6l-.2.9zm-15.4-5.6c-2.5-1.1-5-2.3-7.4-3.5l.5-.9c2.4 1.2 4.8 2.4 7.4 3.5l-.5.9zm68.7-2.6l-.5-.9.7-.4c.8-.5 1.4-1.4 1.4-2.4 0-.7-.2-1.3-.7-1.8-.4-.4-.8-.8-1.1-1.2l.7-.7 1.2 1.2c.6.7 1 1.6 1 2.5 0 1.3-.7 2.6-1.8 3.2l-.9.5zm-83.3-5c-2.4-1.5-4.7-3-6.8-4.6l.6-.8c2.1 1.6 4.3 3.1 6.7 4.6l-.5.8zm77.2-7.3c-2-1.8-4.1-3.6-6.2-5.3l.6-.8c2.2 1.7 4.3 3.5 6.3 5.3l-.7.8zm-90.3-2.6c-2.1-1.9-4-4-5.6-6l.8-.6c1.7 2 3.5 4 5.5 5.9l-.7.7zm77.6-7.5c-2.2-1.5-4.5-3-6.8-4.5l.5-.8c2.3 1.5 4.7 3 6.9 4.5l-.6.8zm-87.9-5.3c-.6-1-1.1-2-1.6-3-.2-.5-.4-1-.4-1.6 0-1.3.7-2.5 1.9-3.2l.3.4.3.4h-.1c-.8.5-1.4 1.4-1.4 2.3 0 .4.1.8.3 1.2.5 1 1 2 1.6 2.9l-.9.6zm74-3.3c-2.3-1.3-4.8-2.6-7.2-3.8l.4-.9c2.5 1.2 4.9 2.5 7.3 3.8l-.5.9zm-14.6-7.3c-2.4-1.1-5-2.1-7.5-3.2l.4-.9c2.6 1 5.1 2.1 7.6 3.2l-.5.9zm-51.9-.5l-.5-.9 7.1-4.1.5.9-7.1 4.1zm36.7-5.5c-2.5-.9-5.1-1.8-7.7-2.6l.3-.9c2.6.8 5.2 1.7 7.8 2.6l-.4.9zm-22.6-2.7l-.5-.9 3.9-2.2c.9-.5 1.9-.6 2.8-.4l1.1.3-.3 1-1.1-.3c-.7-.2-1.5-.1-2.1.3l-3.8 2.2z" fill="#0A1FDB" data-color="2"></path>
        <path d="M71.8 92.4c-12.5-7.2-29.9-8.9-38.8-3.7-8.9 5.2-5.2 15.7 7.3 23l.3-.2-.2-.5c-12.2-7-15.4-17-6.9-22 8.6-5 25.4-3.3 37.6 3.7l.2-.1.5-.2" fill="#010203" data-color="1"></path>
        <path d="M40.3 111.8C32.6 107.3 28 101.5 28 96.3c0-3.2 1.7-5.9 5-7.7 8.9-5.2 26.4-3.5 38.9 3.7l.2.1-.8.5h-.1c-12.1-7-28.9-8.7-37.5-3.7-3.1 1.8-4.7 4.3-4.7 7.3 0 4.9 4.3 10.3 11.6 14.4l.2.6-.5.3zm6.4-26c-5.3 0-10.1 1-13.6 3-3.2 1.8-4.8 4.4-4.8 7.5 0 5.1 4.5 10.8 12.1 15.2l.2-.1-.1-.3c-7.3-4.2-11.7-9.7-11.7-14.6 0-3.1 1.7-5.7 4.9-7.5 8.6-5 25.5-3.3 37.7 3.7l.4-.2c-7.7-4.4-17-6.7-25.1-6.7z" fill="#010203" data-color="1"></path>
        <path d="M158.4 142.2v.9c12.1 7 17.2 15.9 7.9 22.3-.1.1-.3.2-.4.2-8.8 4.5-24.8 2.8-37.4-3.8l-.6.4c12.5 7.2 29.9 8.9 38.8 3.7s6-15.3-6.5-22.5l-1.8-1.2z" fill="#010203" data-color="1"></path>
        <path d="M153.1 169c-8.2 0-17.6-2.3-25.3-6.7l-.2-.1.9-.5h.1c12.5 6.5 28.5 8.2 37.2 3.8.1-.1.3-.2.4-.2 3.3-2.2 4.9-4.8 4.7-7.7-.2-4.6-4.8-9.8-12.6-14.4h-.1V142l2 1.3c7.3 4.2 11.7 9.7 11.7 14.7 0 3.2-1.8 6-5.2 8-3.4 2-8.3 3-13.6 3zm-24.9-6.8c12.4 7.1 29.7 8.7 38.5 3.6 3.3-1.9 5.1-4.6 5.1-7.8 0-4.9-4.3-10.3-11.6-14.5l-1.6-1.1v.5c7.9 4.6 12.5 9.9 12.7 14.5.1 3-1.5 5.7-4.9 7.9-.1.1-.3.2-.4.3-8.8 4.4-24.8 2.8-37.4-3.7l-.4.3z" fill="#010203" data-color="1"></path>
        <path d="M127.6 101.1h-.4c-21.6-2.7-41.1-8.8-56.6-17.7-5.6-3.2-10.5-6.8-14.8-10.6l-13.5 7.8c-1.4.8-2 2.5-1.4 4C46 96.5 56.5 107 70.8 115.2c15.1 8.7 34.5 15 56.4 17.7.7.1 1.4-.1 2-.4l27.4-15.9c1.7-1 2.1-3.3.8-4.8-5.1-6-11.2-11.7-18.1-16.9l-9.8 5.7c-.6.3-1.3.5-1.9.5z" fill="#0A1FDB" data-color="2"></path>
        <path d="M127 98.4h-.5c-1.2-.2-2.4-.3-3.6-.5l.1-1c1.2.2 2.4.3 3.6.5.6.1 1.2 0 1.7-.3l2.1-1.2.5.9-2.1 1.2c-.5.2-1.1.4-1.8.4zm-12.2-1.9c-2.7-.5-5.4-1.1-8-1.8l.2-1c2.6.6 5.3 1.2 8 1.8l-.2 1zm23.3-3.9l-.5-.9 7.1-4.1.5.9-7.1 4.1zm-39.2 0c-2.6-.8-5.3-1.7-7.8-2.6l.3-.9c2.5.9 5.1 1.8 7.7 2.6l-.2.9zM83.5 87c-2.6-1.1-5-2.3-7.4-3.5l.5-.9c2.3 1.2 4.8 2.4 7.4 3.5l-.5.9zm68.7-2.6l-.5-.9.7-.4c.8-.5 1.4-1.4 1.4-2.4 0-.7-.2-1.3-.7-1.8-.4-.4-.8-.8-1.1-1.2l.7-.7 1.2 1.2c.6.7 1 1.6 1 2.5 0 1.3-.7 2.6-1.8 3.2l-.9.5zm-83.3-5c-2.4-1.5-4.7-3-6.8-4.6l.6-.8c2.1 1.6 4.4 3.1 6.7 4.6l-.5.8zm77.2-7.4c-2-1.8-4-3.6-6.2-5.3l.6-.8c2.2 1.7 4.3 3.5 6.3 5.3l-.7.8zm-90.3-2.6c-2.1-1.9-3.9-3.9-5.6-6l.8-.6c1.7 2 3.5 4 5.5 5.9l-.7.7zm77.5-7.5c-2.2-1.5-4.5-3-6.8-4.5l.5-.8c2.3 1.5 4.7 3 6.9 4.5l-.6.8zm-87.8-5.2c-.6-1-1.1-2-1.6-3-.2-.5-.4-1-.4-1.6 0-1.3.7-2.5 1.9-3.2l.3.4.3.4h-.1c-.8.5-1.4 1.4-1.4 2.3 0 .4.1.8.3 1.2.5 1 1 2 1.6 2.9l-.9.6zm74-3.4c-2.3-1.3-4.8-2.6-7.2-3.8l.4-.9c2.5 1.2 4.9 2.5 7.3 3.8l-.5.9zm-14.6-7.2c-2.4-1.1-5-2.1-7.5-3.2l.4-.9c2.6 1 5.1 2.1 7.6 3.2l-.5.9zM53 45.6l-.5-.9 7.1-4.1.5.9-7.1 4.1zM89.7 40c-2.5-.9-5.1-1.8-7.7-2.6l.3-.9c2.6.8 5.2 1.7 7.8 2.6l-.4.9zm-22.6-2.6l-.5-.9 3.9-2.2c.9-.5 1.9-.6 2.8-.4l1.1.3-.3 1-1.1-.4c-.7-.2-1.5-.1-2.1.3l-3.8 2.3z" fill="#0A1FDB" data-color="2"></path>
        <path d="M127.6 101.1h-.4c-21.6-2.7-41.1-8.8-56.6-17.7-14.6-8.5-25-19.1-30.1-30.9-.7-1.7-.1-3.7 1.6-4.6l28.1-16.3c.9-.5 1.9-.6 2.8-.4 19 5.1 36.2 12 51 20.6 13.8 8 25.2 17.2 33.9 27.3.7.8 1 1.9.8 3s-.8 2-1.8 2.6l-27.4 15.9c-.6.3-1.3.5-1.9.5zM72 32c-.5 0-1 .1-1.4.4L42.5 48.7c-1.2.7-1.7 2.1-1.1 3.4 5 11.5 15.2 22.1 29.7 30.4 15.4 8.9 34.8 14.9 56.2 17.6.6.1 1.2-.1 1.7-.3l27.4-15.9c.7-.4 1.2-1.1 1.3-1.9s-.1-1.6-.6-2.2c-8.6-10.1-19.9-19.2-33.6-27.1-14.7-8.5-31.8-15.4-50.8-20.5-.3-.2-.5-.2-.7-.2z" fill="#010203" data-color="1"></path>
    </g>
</svg>