<svg preserveAspectRatio="xMidYMid meet" data-bbox="27.057 22 145.843 156" viewBox="27.057 22 145.843 156" height="200" width="200" xmlns="http://www.w3.org/2000/svg" data-type="color" role="img" aria-labelledby="svgcid-cvgbnd-g8s280"><defs><style>#comp-khdkeros svg [data-color="1"] {fill: #000000;}
#comp-khdkeros svg [data-color="2"] {fill: #0A1FDB;}</style></defs><title id="svgcid-cvgbnd-g8s280"></title>
    <g>
        <path d="M76.4 178c-12 0-25.1-2.3-36.1-9.8-9.7-6.7-13-14.3-13.1-14.6 0-.1-.1-.2 0-.3l5-19.1c2.6-9.8 2.1-20.2-1.4-30.1-7.1-20.1-3.9-44.7 7.9-61.3C45.4 33.3 58.1 22 80.3 22c45.1 0 54.9 35.8 56.8 46.8.3 1.8.4 3.5.4 4.8.2 8.1 5.1 22 5.2 22.2.1.3 0 .5-.3.6s-.5 0-.6-.3c-.2-.6-5-14.2-5.2-22.5 0-1.3-.1-3-.4-4.7-1.9-10.8-11.5-46-55.9-46C63 23 48.9 30 39.5 43.3c-11.6 16.3-14.7 40.6-7.7 60.4 3.5 10.1 4 20.7 1.4 30.7l-5 18.9c1.1 2.3 15.1 29.8 64.1 22.4l8.2-21.4c.1-.3.4-.4.6-.3.3.1.4.4.3.6L93 176.3c-.1.2-.2.3-.4.3-4.8.8-10.4 1.4-16.2 1.4z" fill="#010203" data-color="1"></path>
        <path d="M78.3 143.2c-.2 0-.4-.1-.5-.3C66 117.7 60.6 98.8 60.5 98.6c-.1-.3.1-.5.3-.6.3-.1.5.1.6.3.1.2 5.5 19 17.2 44.2.1.3 0 .5-.3.7z" fill="#010203" data-color="1"></path>
        <path d="M98.2 102.6c-.1 0-.3-.1-.4-.2-.2-.2-21.8-23.2-26.4-27.3-2.5-2.3-9.2-5.3-13.6-3.1-3.3 1.7-4.6 6.1-3.9 12.7.7 6.8 2.7 11.1 5.8 12.6 3.5 1.7 7.3-.5 7.3-.6.2-.1.5-.1.7.2.1.2.1.5-.2.7-.2.1-4.3 2.6-8.3.6-3.5-1.7-5.6-6.2-6.4-13.4-.8-7.2.7-11.8 4.5-13.7 4.6-2.3 11.6.4 14.7 3.2 4.6 4.1 26.2 27.2 26.4 27.4s.2.5 0 .7c.1.1 0 .2-.2.2z" fill="#010203" data-color="1"></path>
        <path fill="#0A1FDB" d="M145 99.3a2.6 2.6 0 1 1-5.2 0 2.6 2.6 0 0 1 5.2 0z" data-color="2"></path>
        <path fill="#0A1FDB" d="M145 113.3a2.6 2.6 0 1 1-5.2 0 2.6 2.6 0 0 1 5.2 0z" data-color="2"></path>
        <path d="M142.4 124.7c-1.4 0-2.6 1.2-2.6 2.6s1.1 2.5 2.5 2.6c.5-1.6 1-3.3 1.4-4.9-.4-.2-.9-.3-1.3-.3z" fill="#0A1FDB" data-color="2"></path>
        <path d="M121.4 102c1.4 0 2.6-1.2 2.6-2.6v-.1c-1.8.2-3.5.4-5.2.6.2 1.1 1.3 2.1 2.6 2.1z" fill="#0A1FDB" data-color="2"></path>
        <path fill="#0A1FDB" d="M134.5 106.3a2.6 2.6 0 1 1-5.2 0 2.6 2.6 0 0 1 5.2 0z" data-color="2"></path>
        <path fill="#0A1FDB" d="M124 113.3a2.6 2.6 0 1 1-5.2 0 2.6 2.6 0 0 1 5.2 0z" data-color="2"></path>
        <path fill="#0A1FDB" d="M134.5 120.3a2.6 2.6 0 1 1-5.2 0 2.6 2.6 0 0 1 5.2 0z" data-color="2"></path>
        <path fill="#0A1FDB" d="M124 127.3a2.6 2.6 0 1 1-5.2 0 2.6 2.6 0 0 1 5.2 0z" data-color="2"></path>
        <path fill="#0A1FDB" d="M134.5 134.3a2.6 2.6 0 1 1-5.2 0 2.6 2.6 0 0 1 5.2 0z" data-color="2"></path>
        <path fill="#0A1FDB" d="M124 141.3a2.6 2.6 0 1 1-5.2 0 2.6 2.6 0 0 1 5.2 0z" data-color="2"></path>
        <path d="M131.9 145.6c-1.4 0-2.6 1.2-2.6 2.6 0 1.1.6 2 1.5 2.4 1.1-1.3 2.2-2.6 3.1-4-.5-.6-1.2-1-2-1z" fill="#0A1FDB" data-color="2"></path>
        <path d="M121.4 152.6c-1.4 0-2.6 1.2-2.6 2.6 0 .2 0 .4.1.6 2.1-.1 3.9-.3 5.2-.5v-.1c-.1-1.4-1.3-2.6-2.7-2.6z" fill="#0A1FDB" data-color="2"></path>
        <path fill="#0A1FDB" d="M113.5 106.3a2.6 2.6 0 1 1-5.2 0 2.6 2.6 0 0 1 5.2 0z" data-color="2"></path>
        <path fill="#0A1FDB" d="M103 113.3a2.6 2.6 0 1 1-5.2 0 2.6 2.6 0 0 1 5.2 0z" data-color="2"></path>
        <path fill="#0A1FDB" d="M113.5 120.3a2.6 2.6 0 1 1-5.2 0 2.6 2.6 0 0 1 5.2 0z" data-color="2"></path>
        <path fill="#0A1FDB" d="M103 127.3a2.6 2.6 0 1 1-5.2 0 2.6 2.6 0 0 1 5.2 0z" data-color="2"></path>
        <path fill="#0A1FDB" d="M113.5 134.3a2.6 2.6 0 1 1-5.2 0 2.6 2.6 0 0 1 5.2 0z" data-color="2"></path>
        <path fill="#0A1FDB" d="M103 141.3a2.6 2.6 0 1 1-5.2 0 2.6 2.6 0 0 1 5.2 0z" data-color="2"></path>
        <path fill="#0A1FDB" d="M113.5 148.2a2.6 2.6 0 1 1-5.2 0 2.6 2.6 0 0 1 5.2 0z" data-color="2"></path>
        <path d="M100.4 152.6c-1 0-1.9.6-2.3 1.4 1.7.4 3.3.7 4.9.9-.1-1.2-1.2-2.3-2.6-2.3z" fill="#0A1FDB" data-color="2"></path>
        <path fill="#0A1FDB" d="M92.6 134.3a2.6 2.6 0 1 1-5.2 0 2.6 2.6 0 0 1 5.2 0z" data-color="2"></path>
        <path d="M82.1 141.3c0-1-.5-1.8-1.3-2.2-.8.9-1.5 1.7-2.2 2.4-.5.5-.8 1.2-.9 1.8.5.4 1.1.7 1.7.7 1.5-.1 2.7-1.3 2.7-2.7z" fill="#0A1FDB" data-color="2"></path>
        <path fill="#0A1FDB" d="M92.6 148.2a2.6 2.6 0 1 1-5.2 0 2.6 2.6 0 0 1 5.2 0z" data-color="2"></path>
        <path d="M112.4 171c-14.2 0-31.1-5.4-50.4-16-1-.5-1.3-1.8-.8-2.7.5-1 1.8-1.3 2.7-.8 29.7 16.4 53.1 19.8 69.3 10.2 10.6-6.3 18.2-18.1 22.5-35 3.6-14 3.9-27.7 3.9-33 0-1.1.9-2 2-2s2 .9 2 2c.1 12.7-1.7 55.6-28.3 71.4-6.7 3.9-14.3 5.9-22.9 5.9z" fill="#0A1FDB" data-color="2"></path>
        <path fill="#0A1FDB" d="M150 102.8l2 2 9.5-10.1 9.3 10.2 2.1-1.9-11.3-12.4-11.6 12.2z" data-color="2"></path>
        <path fill="#0A1FDB" d="M76.5 147.5l.8 2.7-13.4 3.5 4.5 13-2.7.9-5.4-15.9 16.2-4.2z" data-color="2"></path>
        <path d="M114.8 156.3c-9.2 0-22.3-1.7-35.5-9.2-1.1-.6-1.8-1.7-2-2.9s.2-2.4 1-3.3c5.1-5.5 17.1-20 18.4-36.7.2-2 1.8-3.5 3.7-3.6 7.7-.4 27.2-1.8 42-5.1 1.2-.3 2.4 0 3.4.8.9.8 1.5 1.9 1.5 3.1.1 11-1.6 38.3-19.6 55-.6.5-1.3.9-2 1-2.1.4-5.9.9-10.9.9zm-14.2-54.6c-1.5.1-2.7 1.2-2.8 2.7-1.3 17-13.5 31.7-18.7 37.3-.6.7-.9 1.6-.8 2.5s.7 1.7 1.5 2.2c20.6 11.7 41.7 8.9 45.7 8.2.6-.1 1.1-.4 1.5-.7 17.7-16.5 19.4-43.5 19.3-54.3 0-.9-.4-1.8-1.1-2.3-.7-.6-1.6-.8-2.5-.6-14.9 3.2-34.4 4.5-42.1 5z" fill="#010203" data-color="1"></path>
    </g>
</svg>