<svg preserveAspectRatio="xMidYMid meet" data-bbox="33.2 20 133.6 160.1" viewBox="33.2 20 133.6 160.1" height="200" width="200" xmlns="http://www.w3.org/2000/svg" data-type="color" role="img" aria-labelledby="svgcid--v9vidhratyg2"><defs><style>#comp-khdkaih6 svg [data-color="1"] {fill: #000000;}
#comp-khdkaih6 svg [data-color="2"] {fill: #0A1FDB;}</style></defs><title id="svgcid--v9vidhratyg2"></title>
    <g>
        <path d="M163.1 20.9c1.5 0 2.7 1.2 2.7 2.7v152.7c0 1.5-1.2 2.7-2.7 2.7H36.9c-1.5 0-2.7-1.2-2.7-2.7V23.7c0-1.5 1.2-2.7 2.7-2.7h126.2m0-1H36.9c-2 0-3.7 1.6-3.7 3.7v152.7c0 2 1.6 3.7 3.7 3.7h126.2c2 0 3.7-1.6 3.7-3.7V23.7c-.1-2.1-1.7-3.7-3.7-3.7z" fill="#010203" data-color="1"></path>
        <path d="M163.1 20.9c1.5 0 2.7 1.2 2.7 2.7v21.9H34.2V23.7c0-1.5 1.2-2.7 2.7-2.7h126.2m0-1H36.9c-2 0-3.7 1.6-3.7 3.7v22.9h133.5V23.7c0-2.1-1.6-3.7-3.6-3.7z" fill="#010203" data-color="1"></path>
        <path fill="#0A1FDB" d="M55.9 33.1a5.5 5.5 0 1 1-11 0 5.5 5.5 0 0 1 11 0z" data-color="2"></path>
        <path fill="#0A1FDB" d="M72.4 33.1a5.5 5.5 0 1 1-11 0 5.5 5.5 0 0 1 11 0z" data-color="2"></path>
        <path fill="#0A1FDB" d="M156.5 32.2V34h-21.9v-1.8h21.9z" data-color="2"></path>
        <path d="M100 74.2c21.6 0 39.1 17.6 39.1 39.1 0 21.6-17.6 39.1-39.1 39.1s-39.1-17.6-39.1-39.1S78.4 74.2 100 74.2m0-.9c-22.1 0-40 17.9-40 40s17.9 40 40 40 40-17.9 40-40-17.9-40-40-40z" fill="#010203" data-color="1"></path>
        <path d="M122.1 120C100 120 100 106.7 78 106.7c-8.3 0-13.5 1.9-17.9 4.3 0 .8-.1 1.6-.1 2.4 0 22.1 17.9 40 40 40 21.3 0 38.7-16.6 40-37.6-4.4 2.3-9.6 4.2-17.9 4.2zm-41 11.1a6.7 6.7 0 1 1 6.7-6.7c0 3.8-3 6.7-6.7 6.7zm12.2 3.4c-1.8 0-3.3-1.5-3.3-3.3s1.5-3.3 3.3-3.3 3.3 1.5 3.3 3.3-1.4 3.3-3.3 3.3z" fill="#0A1FDB" data-color="2"></path>
        <path d="M100 162.8c-23.5 0-43.8-16.7-48.4-39.7H45v-18.7h6.4c4.4-23.9 26-41.2 50.3-40.4 25.5.9 46.4 21.5 47.6 47 .6 13.7-4.2 26.6-13.6 36.5-9.4 9.8-22.1 15.3-35.7 15.3zm-54-40.6h6.4l.1.4c4.4 22.8 24.4 39.3 47.6 39.3 13.4 0 25.8-5.3 35.1-15 9.2-9.7 14-22.4 13.3-35.8-1.2-25-21.7-45.2-46.7-46.1-24-.8-45.3 16.4-49.5 40l-.1.4H46v16.8z" fill="#010203" data-color="1"></path>
    </g>
</svg>